# xmcd CD database file
#
# Track frame offsets:
#	150
#	9802
#	27853
#	44306
#	58260
#	74472
#	89215
#	105121
#	123219
#	135483
#	146672
#	165366
#	179031
#	191127
#	207808
#	222275
#	236368
#	237325
#
# Disc length: 3298 seconds
#
# Revision: 0
# Processed by: cddbd v1.5.2PL0 Copyright (c) Steve Scherf et al.
# Submitted via: CDex 1.70beta2
#
DISCID=fb0ce012
DTITLE=Dal Richards and His Orchestra - Dal Richards and Friends
DYEAR=2007
DGENRE=Jazz
TTITLE0=The Girl From Ipanema
TTITLE1=What A Wonderful World (with Jennifer Hayes)
TTITLE2=In The Mood
TTITLE3=Steppin Out With My Baby (with Diane Lines)
TTITLE4=Blues In The Night (with Jim Byrnes)
TTITLE5=My Heart Belongs to Daddy (with Bria Skonberg)
TTITLE6=Chattanooga Choo Choo (with Jamie Croil and Diane Lines)
TTITLE7=These Foolish Things (Jennifer Hayes)
TTITLE8=All of Me (with Bria Skonberg and Jamie Croil)
TTITLE9=Where or When
TTITLE10=Caravan (with Jennifer Hayes)
TTITLE11=Route 66
TTITLE12=Deed I do (with Bria Skonberg)
TTITLE13=As Time Goes By
TTITLE14=I Love Being Here With You (with Diane Lines)
TTITLE15=Sing Sing Sing
TTITLE16=Dal Introduces theme
TTITLE17=The Hour of Parting
EXTD=YEAR: 2007
EXTT0=
EXTT1=
EXTT2=
EXTT3=
EXTT4=
EXTT5=
EXTT6=
EXTT7=
EXTT8=
EXTT9=
EXTT10=
EXTT11=
EXTT12=
EXTT13=
EXTT14=
EXTT15=
EXTT16=
EXTT17=
PLAYORDER=
